<svg width="48" height="49" viewBox="0 0 48 49" fill="none" xmlns="http://www.w3.org/2000/svg">
<rect y="0.600586" width="48" height="48" rx="4" fill="#4878A6"/>
<path d="M20.3816 34.304C21.2096 34.304 21.8807 33.6399 21.8807 32.8208C21.8807 32.0017 21.2096 31.3377 20.3816 31.3377C19.5537 31.3377 18.8826 32.0017 18.8826 32.8208C18.8826 33.6399 19.5537 34.304 20.3816 34.304Z" fill="white"/>
<path d="M29.4893 34.304C30.3173 34.304 30.9884 33.6399 30.9884 32.8208C30.9884 32.0017 30.3173 31.3377 29.4893 31.3377C28.6614 31.3377 27.9903 32.0017 27.9903 32.8208C27.9903 33.6399 28.6614 34.304 29.4893 34.304Z" fill="white"/>
<path d="M33.5402 16.7391C33.4782 16.6635 33.4 16.6024 33.3113 16.5602C33.2226 16.5181 33.1256 16.4959 33.0272 16.4952H22.0661C21.6174 16.4952 21.2998 16.9338 21.4398 17.3601V17.3601C21.5287 17.6307 21.7813 17.8136 22.0661 17.8136H32.1544L30.3755 24.7461H20.3816L17.3369 16.1854C17.3039 16.0842 17.2467 15.9924 17.1702 15.9178C17.0936 15.8432 16.9999 15.788 16.8971 15.757L14.1655 14.9264C14.0815 14.9009 13.9932 14.892 13.9058 14.9002C13.8183 14.9084 13.7333 14.9336 13.6556 14.9743C13.4988 15.0565 13.3815 15.1969 13.3293 15.3648C13.2772 15.5326 13.2946 15.714 13.3777 15.8692C13.4608 16.0243 13.6028 16.1404 13.7724 16.192L16.1642 16.9171L19.2224 25.4975L18.1297 26.3808L18.0431 26.4665C17.7728 26.7746 17.6196 27.1664 17.6099 27.5743C17.6002 27.9822 17.7345 28.3806 17.9898 28.701C18.1714 28.9195 18.4021 29.0929 18.6636 29.2074C18.9251 29.3219 19.21 29.3742 19.4955 29.3602H30.6153C30.792 29.3602 30.9615 29.2908 31.0864 29.1672C31.2114 29.0435 31.2816 28.8759 31.2816 28.701C31.2816 28.5262 31.2114 28.3586 31.0864 28.2349C30.9615 28.1113 30.792 28.0419 30.6153 28.0419H19.3889C19.3122 28.0393 19.2374 28.0172 19.1719 27.9776C19.1063 27.9381 19.0522 27.8826 19.0147 27.8163C18.9772 27.75 18.9576 27.6753 18.9578 27.5994C18.958 27.5234 18.978 27.4488 19.0158 27.3827L20.6215 26.0644H30.9085C31.0625 26.0681 31.213 26.0189 31.3345 25.9252C31.456 25.8314 31.5409 25.6989 31.5747 25.5502L33.6867 17.2994C33.707 17.2011 33.7043 17.0996 33.6789 17.0025C33.6535 16.9054 33.6061 16.8153 33.5402 16.7391Z" fill="white"/>
<path fill-rule="evenodd" clip-rule="evenodd" d="M33.0272 16.4952C33.1256 16.4959 33.2226 16.5181 33.3113 16.5602C33.4 16.6024 33.4782 16.6635 33.5402 16.7391C33.6061 16.8153 33.6535 16.9054 33.6789 17.0025C33.7043 17.0996 33.707 17.2011 33.6867 17.2994L31.5747 25.5502C31.5409 25.6989 31.456 25.8314 31.3345 25.9252C31.213 26.0189 31.0625 26.0681 30.9085 26.0644H20.6215L19.0158 27.3827C18.978 27.4488 18.958 27.5234 18.9578 27.5994C18.9576 27.6753 18.9772 27.75 19.0147 27.8163C19.0522 27.8826 19.1063 27.9381 19.1719 27.9776C19.2374 28.0172 19.3122 28.0393 19.3889 28.0419H30.6153C30.792 28.0419 30.9615 28.1113 31.0864 28.2349C31.2114 28.3586 31.2816 28.5262 31.2816 28.701C31.2816 28.8759 31.2114 29.0435 31.0864 29.1672C30.9615 29.2908 30.792 29.3602 30.6153 29.3602H19.4955C19.21 29.3742 18.9251 29.3219 18.6636 29.2074C18.4021 29.0929 18.1714 28.9195 17.9898 28.701C17.7345 28.3806 17.6002 27.9822 17.6099 27.5743C17.6196 27.1664 17.7728 26.7746 18.0431 26.4665L18.1297 26.3808L19.2224 25.4975L16.1642 16.9171L13.7724 16.192C13.6028 16.1404 13.4608 16.0243 13.3777 15.8692C13.2946 15.714 13.2772 15.5326 13.3293 15.3648C13.3815 15.1969 13.4988 15.0565 13.6556 14.9743C13.7333 14.9336 13.8183 14.9084 13.9058 14.9002C13.9932 14.892 14.0815 14.9009 14.1655 14.9264L16.8971 15.757C16.9999 15.788 17.0936 15.8432 17.1702 15.9178C17.2467 15.9924 17.3039 16.0842 17.3369 16.1854L20.3816 24.7461H30.3755L32.1544 17.8136H22.0661C21.7813 17.8136 21.5287 17.6307 21.4398 17.3601V17.3601C21.2998 16.9338 21.6174 16.4952 22.0661 16.4952H33.0272ZM31.7805 18.1102H22.0631C21.6501 18.1102 21.2839 17.845 21.155 17.4527V17.4527C20.9519 16.8346 21.4124 16.1986 22.0631 16.1986H33.0291C33.1718 16.1995 33.3125 16.2317 33.4412 16.2929C33.5686 16.3535 33.681 16.441 33.7705 16.5492C33.8648 16.6591 33.9327 16.7887 33.9692 16.9282C34.006 17.069 34.0099 17.2162 33.9805 17.3587L33.9792 17.3649L31.8672 25.6154M31.7805 18.1102L30.135 24.4494H20.6014L17.6228 16.0961L17.6222 16.0945C17.5745 15.9478 17.4916 15.8146 17.3805 15.7064C17.2696 15.5983 17.1339 15.5184 16.9849 15.4733L14.2536 14.6429C14.1319 14.6059 14.0041 14.593 13.8774 14.6049C13.7508 14.6168 13.6277 14.6532 13.5153 14.7122C13.2882 14.8312 13.1182 15.0346 13.0427 15.2776C12.9673 15.5207 12.9924 15.7834 13.1128 16.0081C13.2331 16.2327 13.4387 16.4009 13.6843 16.4756L15.9259 17.1551L18.8751 25.3951L17.9283 26.1605L17.8236 26.2641L17.8166 26.2721C17.5006 26.6324 17.3215 27.0904 17.3102 27.5673C17.2988 28.0442 17.4559 28.51 17.7543 28.8847L17.7582 28.8894C17.9695 29.1437 18.238 29.3455 18.5423 29.4787C18.8442 29.6108 19.1729 29.6718 19.5026 29.6568H30.6153C30.8715 29.6568 31.1172 29.5561 31.2984 29.3769C31.4796 29.1977 31.5814 28.9545 31.5814 28.7011C31.5814 28.4476 31.4796 28.2044 31.2984 28.0252C31.1172 27.846 30.8715 27.7453 30.6153 27.7453H19.3954C19.3715 27.7438 19.3484 27.7367 19.3279 27.7243C19.3064 27.7114 19.2886 27.6931 19.2763 27.6714C19.264 27.6496 19.2575 27.6251 19.2576 27.6001C19.2576 27.5887 19.259 27.5773 19.2617 27.5663L20.7297 26.361H30.9051C31.1271 26.3655 31.3438 26.2942 31.5189 26.1591C31.695 26.0232 31.8181 25.8309 31.8672 25.6154M22.1805 32.8208C22.1805 33.8038 21.3751 34.6006 20.3816 34.6006C19.3881 34.6006 18.5828 33.8038 18.5828 32.8208C18.5828 31.8379 19.3881 31.0411 20.3816 31.0411C21.3751 31.0411 22.1805 31.8379 22.1805 32.8208ZM31.2882 32.8208C31.2882 33.8038 30.4828 34.6006 29.4893 34.6006C28.4958 34.6006 27.6905 33.8038 27.6905 32.8208C27.6905 31.8379 28.4958 31.0411 29.4893 31.0411C30.4828 31.0411 31.2882 31.8379 31.2882 32.8208ZM20.3816 34.304C21.2096 34.304 21.8807 33.6399 21.8807 32.8208C21.8807 32.0017 21.2096 31.3377 20.3816 31.3377C19.5537 31.3377 18.8826 32.0017 18.8826 32.8208C18.8826 33.6399 19.5537 34.304 20.3816 34.304ZM29.4893 34.304C30.3173 34.304 30.9884 33.6399 30.9884 32.8208C30.9884 32.0017 30.3173 31.3377 29.4893 31.3377C28.6614 31.3377 27.9903 32.0017 27.9903 32.8208C27.9903 33.6399 28.6614 34.304 29.4893 34.304Z" fill="white"/>
</svg>
