<svg width="48" height="49" viewBox="0 0 48 49" fill="none" xmlns="http://www.w3.org/2000/svg">
<rect x="0.5" y="1.10059" width="47" height="47" rx="3.5" stroke="#C8CACB"/>
<path d="M17 24.6006C16.7348 24.6006 16.4804 24.7059 16.2929 24.8935C16.1054 25.081 16 25.3354 16 25.6006V33.6006C16 33.8658 16.1054 34.1202 16.2929 34.3077C16.4804 34.4952 16.7348 34.6006 17 34.6006C17.2652 34.6006 17.5196 34.4952 17.7071 34.3077C17.8946 34.1202 18 33.8658 18 33.6006V25.6006C18 25.3354 17.8946 25.081 17.7071 24.8935C17.5196 24.7059 17.2652 24.6006 17 24.6006ZM22 14.6006C21.7348 14.6006 21.4804 14.7059 21.2929 14.8935C21.1054 15.081 21 15.3354 21 15.6006V33.6006C21 33.8658 21.1054 34.1202 21.2929 34.3077C21.4804 34.4952 21.7348 34.6006 22 34.6006C22.2652 34.6006 22.5196 34.4952 22.7071 34.3077C22.8946 34.1202 23 33.8658 23 33.6006V15.6006C23 15.3354 22.8946 15.081 22.7071 14.8935C22.5196 14.7059 22.2652 14.6006 22 14.6006ZM32 28.6006C31.7348 28.6006 31.4804 28.7059 31.2929 28.8935C31.1054 29.081 31 29.3354 31 29.6006V33.6006C31 33.8658 31.1054 34.1202 31.2929 34.3077C31.4804 34.4952 31.7348 34.6006 32 34.6006C32.2652 34.6006 32.5196 34.4952 32.7071 34.3077C32.8946 34.1202 33 33.8658 33 33.6006V29.6006C33 29.3354 32.8946 29.081 32.7071 28.8935C32.5196 28.7059 32.2652 28.6006 32 28.6006ZM27 20.6006C26.7348 20.6006 26.4804 20.7059 26.2929 20.8935C26.1054 21.081 26 21.3354 26 21.6006V33.6006C26 33.8658 26.1054 34.1202 26.2929 34.3077C26.4804 34.4952 26.7348 34.6006 27 34.6006C27.2652 34.6006 27.5196 34.4952 27.7071 34.3077C27.8946 34.1202 28 33.8658 28 33.6006V21.6006C28 21.3354 27.8946 21.081 27.7071 20.8935C27.5196 20.7059 27.2652 20.6006 27 20.6006Z" fill="#C8CACB"/>
</svg>
