<svg width="48" height="49" viewBox="0 0 48 49" fill="none" xmlns="http://www.w3.org/2000/svg">
<rect x="0.5" y="1.10059" width="47" height="47" rx="3.5" stroke="#C8CACB"/>
<path d="M32.1598 17.6006C31.0998 16.5378 29.6946 15.8892 28.1981 15.7718C26.7017 15.6544 25.2126 16.0761 23.9998 16.9606C22.7274 16.0143 21.1438 15.5851 19.5677 15.7597C17.9916 15.9342 16.5402 16.6994 15.5058 17.9012C14.4713 19.103 13.9306 20.6521 13.9926 22.2366C14.0546 23.8211 14.7146 25.3233 15.8398 26.4406L22.0498 32.6606C22.5698 33.1724 23.2702 33.4592 23.9998 33.4592C24.7294 33.4592 25.4298 33.1724 25.9498 32.6606L32.1598 26.4406C33.3274 25.2659 33.9827 23.6769 33.9827 22.0206C33.9827 20.3644 33.3274 18.7754 32.1598 17.6006V17.6006ZM30.7498 25.0606L24.5398 31.2706C24.4691 31.342 24.385 31.3986 24.2923 31.4373C24.1996 31.4759 24.1002 31.4958 23.9998 31.4958C23.8994 31.4958 23.7999 31.4759 23.7072 31.4373C23.6146 31.3986 23.5305 31.342 23.4598 31.2706L17.2498 25.0306C16.4655 24.229 16.0264 23.1521 16.0264 22.0306C16.0264 20.9092 16.4655 19.8323 17.2498 19.0306C18.0489 18.2416 19.1268 17.7992 20.2498 17.7992C21.3728 17.7992 22.4506 18.2416 23.2498 19.0306C23.3428 19.1244 23.4534 19.1988 23.5752 19.2495C23.6971 19.3003 23.8278 19.3264 23.9598 19.3264C24.0918 19.3264 24.2225 19.3003 24.3444 19.2495C24.4662 19.1988 24.5768 19.1244 24.6698 19.0306C25.4689 18.2416 26.5468 17.7992 27.6698 17.7992C28.7928 17.7992 29.8706 18.2416 30.6698 19.0306C31.4648 19.8218 31.9184 20.8928 31.9333 22.0143C31.9483 23.1358 31.5234 24.2186 30.7498 25.0306V25.0606Z" fill="#C8CACB"/>
</svg>
