<svg width="194" height="25" viewBox="0 0 194 25" fill="none" xmlns="http://www.w3.org/2000/svg">
<path d="M12 2.60059L15.09 8.86059L22 9.87059L17 14.7406L18.18 21.6206L12 18.3706L5.82 21.6206L7 14.7406L2 9.87059L8.91 8.86059L12 2.60059Z" fill="#FBB13C"/>
<path d="M38 2.60059L41.09 8.86059L48 9.87059L43 14.7406L44.18 21.6206L38 18.3706L31.82 21.6206L33 14.7406L28 9.87059L34.91 8.86059L38 2.60059Z" fill="#FBB13C"/>
<path d="M64 2.60059L67.09 8.86059L74 9.87059L69 14.7406L70.18 21.6206L64 18.3706L57.82 21.6206L59 14.7406L54 9.87059L60.91 8.86059L64 2.60059Z" fill="#FBB13C"/>
<path d="M90 2.60059L93.09 8.86059L100 9.87059L95 14.7406L96.18 21.6206L90 18.3706L83.82 21.6206L85 14.7406L80 9.87059L86.91 8.86059L90 2.60059Z" fill="#FBB13C"/>
<path d="M116 2.60059L119.09 8.86059L126 9.87059L121 14.7406L122.18 21.6206L116 18.3706L109.82 21.6206L111 14.7406L106 9.87059L112.91 8.86059L116 2.60059Z" fill="#FBB13C"/>
<path d="M159 15.6006C159 16.131 158.789 16.6397 158.414 17.0148C158.039 17.3899 157.53 17.6006 157 17.6006H145L141 21.6006V5.60059C141 5.07015 141.211 4.56145 141.586 4.18637C141.961 3.8113 142.47 3.60059 143 3.60059H157C157.53 3.60059 158.039 3.8113 158.414 4.18637C158.789 4.56145 159 5.07015 159 5.60059V15.6006Z" stroke="#070C11" stroke-width="2" stroke-linecap="round" stroke-linejoin="round"/>
<path d="M172.104 4.96059L172.312 5.68058C171.267 6.19259 170.509 7.02459 170.04 8.17659C169.571 9.32859 169.336 10.8006 169.336 12.5926C169.336 13.7659 169.437 14.8113 169.64 15.7286C169.843 16.6353 170.163 17.4033 170.6 18.0326C171.037 18.6619 171.608 19.1579 172.312 19.5206L172.104 20.2406C170.632 19.6859 169.549 18.7953 168.856 17.5686C168.163 16.3313 167.816 14.6779 167.816 12.6086C167.816 10.5286 168.163 8.86992 168.856 7.63259C169.549 6.39525 170.632 5.50459 172.104 4.96059ZM177.502 6.56059V17.6006H175.902V9.02459C175.902 8.85392 175.907 8.68859 175.918 8.52859C175.928 8.35792 175.95 8.18725 175.982 8.01659L173.294 8.83259L173.086 7.69659L175.902 6.56059H177.502ZM186.146 6.56059C186.37 6.56059 186.552 6.60325 186.69 6.68859C186.829 6.77392 186.92 6.89659 186.962 7.05659C187.005 7.20592 186.994 7.38725 186.93 7.60059L183.49 17.6006H181.906L184.946 8.76859C185.01 8.60859 185.069 8.45925 185.122 8.32059C185.176 8.18192 185.24 8.04325 185.314 7.90459H179.89L179.826 6.56059H186.146ZM188.125 4.96059C189.607 5.50459 190.695 6.39525 191.389 7.63259C192.082 8.86992 192.429 10.5286 192.429 12.6086C192.429 14.6779 192.082 16.3313 191.389 17.5686C190.695 18.7953 189.607 19.6859 188.125 20.2406L187.949 19.5206C188.642 19.1579 189.202 18.6619 189.629 18.0326C190.066 17.4033 190.386 16.6353 190.589 15.7286C190.802 14.8113 190.909 13.7659 190.909 12.5926C190.909 10.8006 190.674 9.32859 190.205 8.17659C189.746 7.02459 188.994 6.19259 187.949 5.68058L188.125 4.96059Z" fill="#070C11"/>
</svg>
