<svg width="48" height="48" viewBox="0 0 48 48" fill="none" xmlns="http://www.w3.org/2000/svg">
<path d="M32.1598 17C31.0998 15.9373 29.6946 15.2886 28.1981 15.1712C26.7017 15.0538 25.2126 15.4755 23.9998 16.36C22.7274 15.4137 21.1438 14.9846 19.5677 15.1591C17.9916 15.3336 16.5402 16.0988 15.5058 17.3006C14.4713 18.5024 13.9306 20.0516 13.9926 21.6361C14.0546 23.2206 14.7146 24.7227 15.8398 25.84L22.0498 32.06C22.5698 32.5718 23.2702 32.8587 23.9998 32.8587C24.7294 32.8587 25.4298 32.5718 25.9498 32.06L32.1598 25.84C33.3274 24.6653 33.9827 23.0763 33.9827 21.42C33.9827 19.7638 33.3274 18.1748 32.1598 17V17ZM30.7498 24.46L24.5398 30.67C24.4691 30.7414 24.385 30.798 24.2923 30.8367C24.1996 30.8753 24.1002 30.8953 23.9998 30.8953C23.8994 30.8953 23.7999 30.8753 23.7072 30.8367C23.6146 30.798 23.5305 30.7414 23.4598 30.67L17.2498 24.43C16.4655 23.6284 16.0264 22.5515 16.0264 21.43C16.0264 20.3086 16.4655 19.2317 17.2498 18.43C18.0489 17.641 19.1268 17.1986 20.2498 17.1986C21.3728 17.1986 22.4506 17.641 23.2498 18.43C23.3428 18.5238 23.4534 18.5982 23.5752 18.6489C23.6971 18.6997 23.8278 18.7258 23.9598 18.7258C24.0918 18.7258 24.2225 18.6997 24.3444 18.6489C24.4662 18.5982 24.5768 18.5238 24.6698 18.43C25.4689 17.641 26.5468 17.1986 27.6698 17.1986C28.7928 17.1986 29.8706 17.641 30.6698 18.43C31.4648 19.2212 31.9184 20.2922 31.9333 21.4137C31.9483 22.5352 31.5234 23.618 30.7498 24.43V24.46Z" fill="#838688"/>
</svg>
